PathFileType	4	(X/Y/Z)	E:\Qualisys_Data\Carbon_Farble_Plate\Data\Amateur_Runner\S14\T1\S14T1V25_c3d.trc
DataRate	CameraRate	NumFrames	NumMarkers	Units	OrigDataRate	OrigDataStartFrame	OrigNumFrames
200.000000	200.000000	4	39	mm	200.000000	189	303
Frame#	Time	LSHO			RSHO			LICST			RICST			LASIS			LHEEL			RASIS			LTROC			RTROC			SACR			LTH1			LSK4			LTH2			LTH3			RHM5			LSK2			LTH4			RTH1			LTOE			RTH2			RTH3			RTH4			LLEP			RLEP			LSK1			LSK3			RSK1			LHM5			RSK2			LFT1			RSK3			RSK4			LLME			RLME			RTOE			RHEEL			RFT1			RFT2			LFT2			
		X1	Y1	Z1	X2	Y2	Z2	X3	Y3	Z3	X4	Y4	Z4	X5	Y5	Z5	X6	Y6	Z6	X7	Y7	Z7	X8	Y8	Z8	X9	Y9	Z9	X10	Y10	Z10	X11	Y11	Z11	X12	Y12	Z12	X13	Y13	Z13	X14	Y14	Z14	X15	Y15	Z15	X16	Y16	Z16	X17	Y17	Z17	X18	Y18	Z18	X19	Y19	Z19	X20	Y20	Z20	X21	Y21	Z21	X22	Y22	Z22	X23	Y23	Z23	X24	Y24	Z24	X25	Y25	Z25	X26	Y26	Z26	X27	Y27	Z27	X28	Y28	Z28	X29	Y29	Z29	X30	Y30	Z30	X31	Y31	Z31	X32	Y32	Z32	X33	Y33	Z33	X34	Y34	Z34	X35	Y35	Z35	X36	Y36	Z36	X37	Y37	Z37	X38	Y38	Z38	X39	Y39	Z39	

190	0.945	1027.532470703125	1415.704345703125	-512.9235229492188	1103.502197265625	1392.955078125	-221.6082458496094	1020.388488769531	959.2408447265624	-503.6725158691406	1041.602783203125	955.2293090820312	-225.3986358642578	1061.747924804688	909.360107421875	-475.3164367675781	843.9202270507812	409.1531677246094	-386.509521484375	1066.070190429688	912.7837524414062	-242.9629516601562	934.3629760742188	836.4659423828125	-527.6145629882812	911.898681640625	868.7944946289062	-203.0441589355469	891.6959838867188	962.7144165039062	-367.567626953125	1148.244140625	683.9585571289062	-532.2597045898438	1028.0771484375	486.5722351074219	-475.5372619628906	1090.670776367188	634.333251953125	-510.7870178222656	1218.683227539062	614.8251953125	-512.4679565429688	720.7556762695312	56.60409164428711	-243.4132080078125	1112.955688476562	531.7621459960938	-498.8665161132812	1158.434814453125	565.2415771484375	-491.3496704101562	1001.143127441406	613.737060546875	-203.9781494140625	962.5807495117188	180.9831695556641	-423.2628479003906	925.8062744140624	633.2041015625	-198.1007080078125	979.0185546875	520.2047119140625	-237.7685241699219	898.3131103515625	537.0111083984375	-221.6439971923828	1226.1484375	544.1659545898438	-507.6911926269531	899.0982055664062	461.1028442382812	-232.9238128662109	1154.750244140625	459.35400390625	-491.3099975585938	1065.171630859375	414.5311889648438	-471.5739440917969	853.792724609375	342.3919372558594	-234.1642303466797	914.7935180664062	235.0118865966797	-479.2886962890625	784.7846069335938	392.2357482910156	-226.3519287109375	837.8112182617188	386.0043334960938	-355.9604797363281	786.4088745117188	264.95849609375	-252.1344757080078	727.2027587890625	316.5978393554688	-242.6820831298828	895.6561889648438	376.1980895996094	-448.4962158203125	640.208251953125	161.9806823730469	-270.0857238769531	787.8885498046875	43.52112197875977	-307.7119750976562	572.3084106445312	160.2833862304688	-324.2714233398438	575.8162231445312	128.807373046875	-353.6228332519531	565.6690673828125	139.4977874755859	-296.18115234375	820.395751953125	395.0650939941406	-412.9083557128906
191	0.95	1046.0859375	1420.561889648438	-513.2183837890625	1125.474853515625	1397.58740234375	-223.6002044677734	1041.1630859375	963.54296875	-504.4043579101562	1065.353637695312	959.0220947265624	-226.1969451904297	1083.4091796875	913.6437377929688	-475.3263854980469	874.5900268554688	396.8357543945312	-388.9262084960938	1089.167236328125	916.0949096679688	-243.6579132080078	957.6963500976562	841.86572265625	-528.8638305664062	934.885009765625	873.105712890625	-202.4432220458984	914.4859008789062	966.696533203125	-367.3749389648438	1172.606689453125	689.8932495117188	-532.1748657226562	1056.254150390625	482.0494689941406	-476.4102478027344	1115.645629882812	640.2224731445312	-510.7839965820312	1243.76513671875	621.3109741210938	-511.5389709472656	722.4564819335938	56.59866333007812	-242.8632659912109	1139.004028320312	532.0545043945312	-499.2811279296875	1183.558959960938	571.0162963867188	-492.5727233886719	1017.064025878906	617.280517578125	-204.8042602539062	1007.516784667969	175.1565704345703	-419.7045593261719	942.2562255859376	638.6383666992188	-197.1583099365234	992.0289306640624	524.3516235351562	-238.1200561523438	912.1825561523438	543.533447265625	-220.8634643554688	1251.76171875	550.5836181640625	-506.8864135742188	910.5838623046876	467.0227355957031	-232.1687774658203	1183.520385742188	462.8891906738281	-492.7300415039062	1096.97998046875	412.8028259277344	-471.20703125	863.340087890625	348.9133911132812	-232.4778289794922	956.98388671875	224.9081573486328	-477.6399841308594	794.393798828125	399.8381652832031	-225.2334442138672	868.1947631835938	373.3729553222656	-358.433349609375	795.02880859375	271.8175354003906	-249.8162536621094	736.4181518554688	324.35986328125	-240.8778381347656	929.7942504882812	365.2351989746094	-448.4445495605469	648.6845092773438	169.1177520751953	-268.0023803710938	789.8657836914062	43.21506500244141	-306.4310607910156	581.3384399414062	170.2498016357422	-322.4344482421875	583.6126098632812	139.0921630859375	-352.1791076660156	573.9318237304688	149.682373046875	-294.4574279785156	852.9356079101562	380.2759399414062	-415.1387939453125
192	0.955	1064.666137695312	1425.256591796875	-513.5923461914062	1147.5	1402.374633789062	-225.6527404785156	1061.833251953125	967.6122436523438	-504.9032287597656	1088.793823242188	962.4052124023438	-227.134521484375	1105.824829101562	917.9536743164062	-475.6766662597656	906.854248046875	383.8572387695312	-391.0347900390625	1112.276489257812	919.3646240234376	-244.5119934082031	980.9429321289062	847.2301635742188	-530.1275634765625	957.4251098632812	877.6608276367188	-201.8457946777344	937.1774291992188	971.0595703125	-366.964111328125	1196.937866210938	696.1092529296875	-531.9653930664062	1084.779296875	478.0087585449219	-477.9366455078125	1139.985473632812	645.4789428710938	-511.3765258789062	1268.12939453125	627.6718139648438	-511.8931274414062	727.0027465820312	58.27539825439453	-240.9459533691406	1165.156982421875	531.588623046875	-499.5196228027344	1208.11083984375	576.77978515625	-492.9637756347656	1032.980102539062	621.1627197265625	-204.2492065429688	1052.330810546875	169.6103515625	-416.1325988769531	959.0321655273438	644.4692993164062	-197.2302856445312	1005.960327148438	528.4578247070312	-238.0042266845703	926.5538330078124	550.1376953125	-219.9655456542969	1276.970092773438	556.8857421875	-506.5332946777344	922.841796875	473.6441345214844	-230.8787536621094	1213.819946289062	464.6776428222656	-492.7363891601562	1128.787109375	410.4647216796875	-470.9592590332031	873.2601928710938	356.2925109863281	-230.5294952392578	999.8027954101562	215.2777404785156	-475.4262084960938	804.8851928710938	408.40673828125	-223.6933898925781	900.1190185546875	360.6449279785156	-360.7120056152344	805.0972900390625	279.3866577148438	-247.5702362060547	746.5025634765625	332.125	-239.6875	964.217041015625	354.1917114257812	-449.5983581542969	659.0795288085938	175.8402099609375	-266.1532592773438	792.1827392578125	42.68086242675781	-304.9476318359375	594.3154296875	181.2290496826172	-319.8015747070312	592.84521484375	150.2560882568359	-350.6390075683594	583.5568237304688	160.0686340332031	-292.4387512207031	885.836181640625	365.8396301269531	-417.6788330078125
193	0.96	1083.247680664062	1430.079223632812	-513.9679565429688	1168.856079101562	1406.89697265625	-227.6419982910156	1083.578002929688	972.0352172851562	-505.7131958007812	1112.845947265625	966.1951293945312	-227.8309631347656	1127.951538085938	922.3507080078124	-476.1011352539062	939.1521606445312	370.8404541015625	-393.0704345703125	1135.973999023438	922.9229125976562	-245.5475921630859	1004.395935058594	852.2090454101562	-531.2420654296875	980.2213134765624	882.4439086914062	-201.1100769042969	960.1356811523438	975.167724609375	-366.843994140625	1221.204956054688	701.5517578125	-531.9634399414062	1113.099487304688	473.0723571777344	-479.3400573730469	1164.334228515625	650.4695434570312	-512.0420532226562	1292.52490234375	633.285888671875	-511.1449890136719	729.2033081054688	59.62691879272461	-239.9136962890625	1191.17236328125	530.9195556640625	-500.4789428710938	1232.732055664062	582.0266723632812	-494.0147094726562	1049.108520507812	625.1182250976562	-204.2590789794922	1097.072509765625	164.9524536132812	-412.0501403808594	975.9849853515624	650.3375244140625	-196.3937683105469	1019.823059082031	533.3536376953125	-237.2844390869141	941.067138671875	556.7277221679688	-218.9582824707031	1301.693359375	562.3388061523438	-505.7781982421875	934.9177856445312	480.4495544433594	-228.9451141357422	1242.553833007812	466.2850952148438	-492.2978515625	1160.869384765625	408.1427001953125	-470.4619140625	884.103271484375	363.8409423828125	-228.5238037109375	1042.529052734375	205.9849548339844	-472.6603088378906	815.698486328125	415.984619140625	-222.8993225097656	932.70166015625	347.3929443359375	-362.9774475097656	815.2564086914062	286.9694519042969	-244.907958984375	757.0023193359375	340.5384826660156	-238.2051086425781	998.8800659179688	343.6033020019531	-451.4897766113281	669.1022338867188	182.7927093505859	-263.789306640625	795.0564575195312	42.57902145385742	-303.1961975097656	605.895263671875	192.3482208251953	-317.2902221679688	602.9368286132812	161.5623168945312	-348.9167175292969	594.052978515625	171.158447265625	-290.7555236816406	920.041748046875	351.0851745605469	-419.8642272949219
